<?xml version="1.0" ?><svg viewBox="0 0 1000 1000" xmlns="http://www.w3.org/2000/svg"><g fill="#18c4ff"><path d="m52.92 94.51v37.8a172.09 172.09 0 0 0 107.29 159.42 64.2 64.2 0 0 1 39.92 59.53h49.65a64.21 64.21 0 0 1 39.92-59.53 172.09 172.09 0 0 0 107.3-159.42v-37.8z"/><path d="m51.75 94.51v36.19a177 177 0 0 0 10.91 62.22 173.78 173.78 0 0 0 92.92 98.08c5.47 2.38 10.84 4.62 15.8 8a62.65 62.65 0 0 1 13 11.81 63.11 63.11 0 0 1 14.62 40.45 1.18 1.18 0 0 0 1.16 1.17h49.65a1.19 1.19 0 0 0 1.17-1.17 63.61 63.61 0 0 1 35.46-56.79c5.36-2.61 10.94-4.68 16.27-7.35a173.28 173.28 0 0 0 15.12-8.58 173.78 173.78 0 0 0 66.33-77.87 174.08 174.08 0 0 0 14-68.4q0-18.26 0-36.51v-1.25a1.19 1.19 0 0 0 -1.16-1.17h-330.11c-4.46 0-8.93-.08-13.38 0h-.59a1.17 1.17 0 0 0 0 2.34h338.88c1.52 0 3.1.13 4.61 0a5.61 5.61 0 0 1 .58 0l-1.17-1.17v36.19a174.84 174.84 0 0 1 -11.17 62.51 171.28 171.28 0 0 1 -37.56 58.59 173 173 0 0 1 -57.7 38.8 65.57 65.57 0 0 0 -40.78 60.66l1.17-1.17h-49.65l1.17 1.17a66 66 0 0 0 -33.12-57c-5.21-3-10.88-4.92-16.28-7.49a171.56 171.56 0 0 1 -83.33-85.53 171.24 171.24 0 0 1 -14.48-69q0-18.26 0-36.51v-1.22a1.17 1.17 0 0 0 -2.34 0z"/><path d="m397 608v-37.8a172.07 172.07 0 0 0 -107.3-159.41 64.22 64.22 0 0 1 -39.92-59.53h-49.65a64.21 64.21 0 0 1 -39.92 59.53 172.07 172.07 0 0 0 -107.29 159.42v37.79z"/><path d="m398.16 608v-36.18a177 177 0 0 0 -10.91-62.22 173.7 173.7 0 0 0 -92.92-98.12c-5.46-2.38-10.84-4.62-15.8-8a63 63 0 0 1 -27.53-52.22 1.19 1.19 0 0 0 -1.17-1.17h-49.7a1.18 1.18 0 0 0 -1.16 1.17 63.62 63.62 0 0 1 -35.47 56.79c-5.35 2.6-10.94 4.67-16.26 7.35a171.83 171.83 0 0 0 -15.12 8.6 173 173 0 0 0 -80.37 146.25q0 18.25 0 36.51v1.24a1.18 1.18 0 0 0 1.17 1.16h330.08c4.46 0 8.93.09 13.39 0h.61a1.17 1.17 0 0 0 0-2.33h-338.89c-1.51 0-3.1-.14-4.6 0a5.8 5.8 0 0 1 -.59 0l1.17 1.17v-36.18a175.11 175.11 0 0 1 11.17-62.52 171.11 171.11 0 0 1 37.57-58.58 173.05 173.05 0 0 1 57.69-38.81 65.56 65.56 0 0 0 40.78-60.65l-1.17 1.17h49.65l-1.17-1.17a66 66 0 0 0 33.12 57c5.21 2.94 10.89 4.92 16.28 7.48a173.75 173.75 0 0 1 15.33 8.26 170.58 170.58 0 0 1 82.48 146.29q0 18.25 0 36.51v1.2a1.17 1.17 0 0 0 2.34 0z"/></g><rect height="41.02" rx="11.47" width="399.91" x="25" y="63"/><path d="m413.44 101.69h-374.86c-3 0-5.78-.14-8.19-2.32-3.4-3.05-3.05-7.16-3.05-11.27 0-4.31 0-8.62 0-12.94 0-5.89 4.18-9.82 10-9.82h370.82 5a9.43 9.43 0 0 1 6.74 2.66c3.16 3.16 2.68 7.39 2.68 11.45s0 8.21 0 12.32c0 5.35-3.54 9.78-9.14 9.91-3 .07-3 4.74 0 4.67a14 14 0 0 0 13.78-13c.25-3.6 0-7.27 0-10.87 0-3.79.53-8.2-.54-11.89a14 14 0 0 0 -13.28-10c-4.3-.09-8.6 0-12.9 0h-345.63c-5.88 0-11.76 0-17.64 0-7.74 0-14.31 5.52-14.56 13.52-.11 3.63 0 7.28 0 10.91s-.53 8.19.71 11.8c2.13 6.23 7.85 9.46 14.17 9.46h375.9c3 .08 3-4.59-.01-4.59z"/><rect height="41.02" rx="11.47" width="399.91" x="25" y="598.49"/><path d="m36.47 600.83h374.86c3 0 5.78.14 8.2 2.31 3.39 3.05 3.05 7.17 3.05 11.28v12.93c0 5.9-4.19 9.83-10 9.83h-370.83c-1.65 0-3.3 0-5 0a9.47 9.47 0 0 1 -6.75-2.67c-3.16-3.16-2.67-7.39-2.67-11.45s0-8.21 0-12.32c0-5.35 3.53-9.78 9.13-9.91 3-.07 3-4.74 0-4.67a14 14 0 0 0 -13.77 13c-.26 3.59 0 7.27 0 10.87 0 3.78-.53 8.2.55 11.89a14 14 0 0 0 13.27 10c4.3.09 8.6 0 12.9 0h345.59 17.64c7.74 0 14.31-5.52 14.56-13.53.12-3.63 0-7.27 0-10.9s.53-8.19-.7-11.8c-2.13-6.23-7.86-9.46-14.18-9.46h-375.85c-3.01-.07-3.01 4.6 0 4.6z"/><path d="m329.23 229.08c-4.16 2.8-8.33 5.93-13.26 6.9-11.53 2.28-21.86-7.78-33.51-9.32-16.37-2.16-30.76 12.65-47.27 12.8-15.49.14-27.76-12.28-41.48-19.47a65.77 65.77 0 0 0 -48.71-4.75c-13.79 4.09-25.79 12.6-38.82 18.71a75.86 75.86 0 0 1 -15.84 5.53 172.56 172.56 0 0 0 69.83 52.25 64.2 64.2 0 0 1 39.92 59.53h49.65a64.21 64.21 0 0 1 39.92-59.53 172.65 172.65 0 0 0 86.53-77.47c-16.07-.66-33.27 5.59-46.96 14.82z"/><path d="m328.64 228.07c-3.64 2.46-7.29 5.23-11.57 6.45a20 20 0 0 1 -11.61-.6c-7.56-2.39-14.32-7.12-22.26-8.33-15.68-2.38-28.51 9.68-43.3 12.27-16.73 2.93-30-10.1-43.45-17.71a67.31 67.31 0 0 0 -50.08-6.5c-17.74 4.74-32.15 17-49.45 22.8-2.25.75-4.53 1.38-6.85 1.91a1.18 1.18 0 0 0 -.51 1.95 174.47 174.47 0 0 0 51.44 43.5q7.4 4.11 15.16 7.47a94.74 94.74 0 0 1 13.73 6.72 63 63 0 0 1 20.37 21.17 63.78 63.78 0 0 1 8.74 32.09 1.18 1.18 0 0 0 1.16 1.17h49.65a1.2 1.2 0 0 0 1.17-1.17 63.64 63.64 0 0 1 37-57.53c5.93-2.69 11.93-5.12 17.7-8.16a170.06 170.06 0 0 0 16.74-10.09 173.9 173.9 0 0 0 54.81-60.63 1.18 1.18 0 0 0 -1-1.75c-16.9-.63-33.7 5.66-47.59 15-1.24.83-.07 2.85 1.18 2 13.57-9.09 29.9-15.26 46.41-14.65l-1-1.75a172.45 172.45 0 0 1 -52.15 58.52 186.29 186.29 0 0 1 -34.74 18.78 65.32 65.32 0 0 0 -27.65 22.28 66 66 0 0 0 -12.08 37.94l1.17-1.17h-49.65l1.17 1.17a66.06 66.06 0 0 0 -25.3-51.74 64.07 64.07 0 0 0 -12.87-7.77c-5.2-2.35-10.47-4.46-15.56-7a170.22 170.22 0 0 1 -29.13-18.77 173.81 173.81 0 0 1 -27.2-27.23l-.51 2c18.22-4.11 32.85-16.32 50.14-22.74a64.91 64.91 0 0 1 51.85 2.9c13.76 7.08 26.22 20.13 42.71 19.86 7.74-.13 14.95-3.33 21.89-6.45s14.11-6.56 21.83-6.57c8.11 0 15.17 4.46 22.46 7.39a29.16 29.16 0 0 0 11.21 2.48 22.86 22.86 0 0 0 11.52-3.75c1.89-1.14 3.69-2.41 5.51-3.65 1.21-.93.04-2.96-1.21-2.11z"/><path d="m342 533.16c-23-.49-41.83 22.93-64.72 20.92-12.56-1.1-23.49-9.84-36.05-10.83-11.33-.89-22.16 4.63-33.47 5.8-25.83 2.68-49.66-17.31-75.59-15.95-28.96 1.52-51.92 28.9-79.17 34.78v2.33 37.79h344v-37.8a172.8 172.8 0 0 0 -1.6-23.33 82.08 82.08 0 0 1 -16.4-2.24c-12.59-3.28-24.06-11.19-37-11.47z"/><path d="m342 532c-18.89-.28-33.47 13.87-50.73 19.21a36.93 36.93 0 0 1 -13.27 1.79c-5.4-.35-10.56-2.25-15.53-4.27s-9.89-4.28-15.12-5.59a38.68 38.68 0 0 0 -16.21-.4c-5.83 1-11.47 2.88-17.25 4.14a51.44 51.44 0 0 1 -16.32 1c-10.42-1.05-20.33-4.92-30.11-8.44s-19.54-6.9-29.87-7.47c-9.53-.52-18.76 1.87-27.42 5.7-17.65 7.81-32.58 21.08-51 27.3a58.5 58.5 0 0 1 -6.5 1.81 1.19 1.19 0 0 0 -.86 1.13c-.23 11.75 0 23.52 0 35.28v4.81a1.18 1.18 0 0 0 1.17 1.16h330.02c4.46 0 8.93.09 13.39 0h.61a1.18 1.18 0 0 0 1.17-1.16q0-18.74 0-37.47a180 180 0 0 0 -1.6-23.66 1.21 1.21 0 0 0 -1.17-1.16 85.58 85.58 0 0 1 -14.88-1.9 87.32 87.32 0 0 1 -13.07-4.5c-8.22-3.31-16.45-7.04-25.45-7.31-1.51 0-1.5 2.29 0 2.33 9.18.28 17.57 4.29 25.93 7.69a79.77 79.77 0 0 0 12.92 4.26 91.46 91.46 0 0 0 14.57 1.77l-1.17-1.17c2.41 18 1.6 36.38 1.6 54.5v6.62l1.17-1.17h-338.91c-1.51 0-3.1-.14-4.6 0a5.8 5.8 0 0 1 -.59 0l1.17 1.17v-33.86c0-2.09 0-4.17 0-6.26l-.81 1.12c18.71-4.12 34-16.83 50.56-25.69 8.4-4.49 17.46-8.22 27.06-9 10.34-.81 20.46 1.95 30.15 5.28 9.86 3.38 19.56 7.47 29.81 9.54a57.55 57.55 0 0 0 15 1.2c5.73-.35 11.28-1.86 16.81-3.32s11.42-2.93 17.32-2.7c5.49.21 10.74 2.06 15.79 4.1 9.47 3.83 18.67 8 29.13 6.58 18.3-2.5 32.26-17 50.33-20.17a35.47 35.47 0 0 1 6.75-.53 1.17 1.17 0 0 0 .01-2.29z"/><g fill="#fff"><path d="m69.09 113.94a141.87 141.87 0 0 0 -.68 41.25 152.32 152.32 0 0 0 4 20.18 118.11 118.11 0 0 0 6.68 19.13c1.19 2.54 3.36 5.41 6.5 5.14 2.58-.22 5.26-2.64 4.23-5.39-.27-.71-1.2-1.35-2-.79-5 3.7-5 12.13.39 15.51a1.32 1.32 0 0 0 1.77-.47l1.25-2.24-2.23-.62a39.62 39.62 0 0 0 2.85 12 36.14 36.14 0 0 0 6.73 10.08c.74.8 1.89-.38 1.19-1.19a35.23 35.23 0 0 1 -8.33-20.88 1.23 1.23 0 0 0 -2.27-.61l-1.37 2.17 1.76-.46c-3.45-2.42-3.83-8.4-.35-11l-2-.79c.33.88-.33 1.52-1.13 1.85a2.65 2.65 0 0 1 -3-.88c-1.84-1.87-2.66-4.84-3.57-7.23a151.51 151.51 0 0 1 -5.56-17.55 153.47 153.47 0 0 1 -4.46-36.15 159.83 159.83 0 0 1 1.18-20.86c.11-.89-1.43-1.1-1.58-.21z"/><path d="m212.12 366.49c-5 27-28.52 44.52-50.45 58-12.18 7.49-24.54 14.64-36 23.26a233.71 233.71 0 0 0 -31.06 28.09c-5.07 5.5-10.2 11.21-13.91 17.76a37 37 0 0 0 -4.06 10.4 8.63 8.63 0 0 0 -.38 2.65 2.91 2.91 0 0 0 1.49 1.78 6.06 6.06 0 0 0 4.8.78 1.52 1.52 0 0 0 1-1.84 2.6 2.6 0 0 0 -3.48-1.84 6.48 6.48 0 0 0 -3.61 3 105.26 105.26 0 0 0 -6.77 11.8 98.7 98.7 0 0 0 -8.56 25.67c-.28 1.56 2 2.25 2.42.66a117.38 117.38 0 0 1 7.22-21.66 106.77 106.77 0 0 1 5.23-10.18c1-1.63 2-3.25 3-4.83a3.87 3.87 0 0 1 1.19-1.32 4.27 4.27 0 0 0 .65-.29.35.35 0 0 1 .3 0c-.47-.58-.64-.65-.5-.21l1-1.84a3 3 0 0 1 -3-.94l.38 1.46c1-6.42 4-12.12 7.82-17.29a157.39 157.39 0 0 1 12.88-14.86 230.56 230.56 0 0 1 30.16-26.7c21.41-15.83 46.88-26.62 65.28-46.33 9.07-9.71 16.27-21.48 18.55-34.72.18-1-1.4-1.49-1.59-.44z"/><path d="m548.54 406.33a652.77 652.77 0 0 0 -29.06-121.67 18.1 18.1 0 0 0 -3-6.08c-2.84-3.3-7.54-4.13-11.85-4.71a694.6 694.6 0 0 0 -121.71-5.61c-2.9.13-5.91.3-8.46 1.67a19.48 19.48 0 0 0 -5.12 4.6q-29.71 33.77-59.41 67.54c-2 2.31-4.14 4.74-5 7.71-.91 3.22-.22 6.67.49 10q12.36 57.43 28 114.1c.76 2.77 1.61 5.68 3.68 7.67s5.17 2.78 8.07 3.4a396.13 396.13 0 0 0 129.54 5.65c3.42-.42 6.9-.9 10-2.46 4-2 6.91-5.68 9.67-9.22l54-69.07"/></g><path d="m549.37 406.33a637.41 637.41 0 0 0 -14.37-74.39q-4.75-18.53-10.58-36.75c-.94-3-1.91-5.92-2.9-8.86-.89-2.65-1.66-5.5-3.29-7.8-3-4.3-8.32-5.39-13.22-6a688 688 0 0 0 -78.14-6.11q-19.64-.42-39.26.27c-5.75.2-11.9-.14-16.47 3.91a72 72 0 0 0 -6.12 6.71l-6.61 7.5-26.07 29.59-13.21 15-6.6 7.51c-2 2.31-4.16 4.56-6 7a15.15 15.15 0 0 0 -3.33 7.63 27.8 27.8 0 0 0 .94 8.79q2 9.5 4.18 19 4.32 19.19 9 38.28 4.68 18.85 9.68 37.61 2.54 9.5 5.17 19a20.28 20.28 0 0 0 3.05 7.13 12.06 12.06 0 0 0 6.25 4 79 79 0 0 0 8.36 1.88c3.07.61 6.16 1.19 9.25 1.73q9.43 1.65 19 2.83c12.68 1.59 25.45 2.55 38.23 2.9s25.57.07 38.33-.82q9.62-.66 19.21-1.81a46.43 46.43 0 0 0 8.6-1.54 19.76 19.76 0 0 0 7.13-4.08 43.71 43.71 0 0 0 5.34-5.94q3-3.84 6-7.7l12.27-15.7 24.24-31 12-15.3c1.09-1.39-.86-3.37-2-2l-47.55 60.83-6 7.65a61.08 61.08 0 0 1 -5.26 6.2 17.38 17.38 0 0 1 -6.73 4.27 45.48 45.48 0 0 1 -9 1.62q-18.45 2.16-37.05 2.56a396.4 396.4 0 0 1 -74.58-5.4c-6-1-12.06-1.95-17.92-3.47-2.42-.63-4.77-1.6-6.22-3.74s-2.06-5-2.76-7.53q-5-18.37-9.71-36.84-9.36-36.95-17.43-74.19c-.62-2.87-1.38-5.81-1.14-8.77s1.87-5.32 3.69-7.48c4.06-4.81 8.31-9.47 12.47-14.2l25.75-29.26 12.71-14.45 6.43-7.32a86.54 86.54 0 0 1 5.82-6.43 12.11 12.11 0 0 1 7.64-3c3.09-.25 6.21-.29 9.31-.39q9.5-.31 19-.35a694.21 694.21 0 0 1 76.36 3.89c6.34.68 12.67 1.43 19 2.29 4.95.67 10.2 1.62 12.61 6.52a66.06 66.06 0 0 1 3 8.22q1.53 4.53 3 9.08 2.8 8.78 5.38 17.61a678.81 678.81 0 0 1 16.65 71.92q1.56 9 2.88 17.93c.14.91 1.75.7 1.63-.22z"/><path d="m338 482.25c-2.06-2-2.91-4.9-3.68-7.67q-15.61-56.64-28-114.11c-.71-3.28-1.41-6.72-.49-10 .84-3 2.93-5.39 5-7.71l59.41-67.54a22.4 22.4 0 0 1 4.48-4.17l30.28 115.62c1.38 5.26 2.93 10.82 6.88 14.55 5.7 5.38 14.45 5.35 22.27 5.11a868.67 868.67 0 0 1 113.85 3.89l.61 1q-26.71 34.18-53.44 68.38c-2.77 3.54-5.67 7.19-9.67 9.22-3.07 1.56-6.56 2-10 2.45a395.91 395.91 0 0 1 -129.5-5.63c-2.87-.64-5.92-1.34-8-3.39z"/><g fill="#18c4ff"><path d="m337.58 481.9c-.15-.13-.31-.25-.46-.4-2.07-2-2.92-4.9-3.68-7.67q-15.63-56.64-28-114.1c-.71-3.28-1.4-6.73-.49-10 .84-3 2.94-5.4 5-7.71q29.7-33.78 59.41-67.54a22.11 22.11 0 0 1 4.47-4.18q15.17 57.85 30.29 115.62c1.38 5.27 2.92 10.82 6.88 14.56.25.23.51.45.77.66z"/><path d="m339.23 480.25c-2.5-2-3.12-5.51-3.93-8.46q-1.57-5.69-3.1-11.39-3.06-11.38-6-22.82-5.86-22.86-11.21-45.85-2.67-11.49-5.21-23c-.83-3.79-1.72-7.59-2.46-11.41-.67-3.45-.71-6.69 1.22-9.75s4.63-5.64 7-8.33l8.08-9.2q8-9.09 16-18.2 8.91-10.12 17.83-20.26l8.91-10.13 4.29-4.88a23.47 23.47 0 0 1 4.33-4.18l-3.43-1.4 14.07 53.68q7.08 27 14.14 53.92c1.19 4.52 2.21 9.14 3.72 13.57 1.37 4 3.32 7.92 6.63 10.65v-3.3q-28.9 31.49-57.83 62.95l-16.36 17.81c-2 2.21 1.27 5.52 3.3 3.3l57.84-62.95 16.36-17.81a2.36 2.36 0 0 0 0-3.3 18.52 18.52 0 0 1 -5.42-8.61c-1.32-3.88-2.23-7.92-3.27-11.88q-3.45-13.18-6.91-26.36l-13.89-53-7.86-30a2.35 2.35 0 0 0 -3.43-1.39c-3.26 2.17-5.68 5.37-8.24 8.29l-8.26 9.44q-8.26 9.38-16.51 18.76l-16.17 18.39c-5.43 6.17-11 12.26-16.29 18.53-2.31 2.72-4.31 5.64-4.82 9.24-.56 4 .52 8 1.36 11.82q2.6 12 5.34 24 5.44 23.73 11.43 47.32 3.33 13.1 6.83 26.16 1.79 6.64 3.61 13.29c1 3.56 2 7.59 5 10a2.41 2.41 0 0 0 3.3 0 2.34 2.34 0 0 0 .01-3.26z"/><path d="m531 377.81-10.14-.45c-1.66-.07-3.32-.12-5-.17s-3.46-.24-5.17-.14a.93.93 0 0 0 0 1.85c1.7.2 3.46.14 5.17.2l5 .15 10.14.21a.83.83 0 0 0 0-1.65z"/><path d="m532 385.63-10.15-.45c-1.65-.07-3.31-.11-5-.17s-3.47-.24-5.17-.14a.93.93 0 0 0 0 1.85c1.7.21 3.46.15 5.17.2s3.31.11 5 .15l10.15.22a.83.83 0 0 0 0-1.66z"/><path d="m533 393.46-10.15-.46-5-.18c-1.7-.05-3.46-.23-5.17-.14a.93.93 0 0 0 0 1.85c1.7.21 3.46.15 5.17.2s3.32.12 5 .15l10.14.22a.83.83 0 0 0 0-1.65z"/></g><path d="m318.72 425.43c3.67 16.44 8.16 32.68 12.9 48.84.57 1.93 2 10.35 5.67 7.35 1.08-.89-.31-2.61-1.47-1.91.46.13.53.07.19-.18a2.12 2.12 0 0 1 -.28-.51 15.79 15.79 0 0 1 -.57-1.89l-1-3.3c-.71-2.37-1.4-4.73-2.1-7.09q-2-6.87-3.92-13.75c-2.6-9.34-5.16-18.68-7.77-28a.86.86 0 0 0 -1.66.46z" fill="#fff"/><path d="m683.52 298c-7.92 6.17-13 15.23-17.87 23.81a205.61 205.61 0 0 0 -13.58 28.51 144.93 144.93 0 0 0 -5.32 16.92l2.62-.34a227.26 227.26 0 0 0 -22.14-32.75q-6.18-7.61-13-14.66c-4.06-4.2-8.6-8.59-14.41-10.13a13.14 13.14 0 0 0 -8.79.44c-2.73 1.23-4.48 3.72-6.1 6.14a105.71 105.71 0 0 0 -9 16.6 149.65 149.65 0 0 0 -10.26 36.68 131.36 131.36 0 0 0 -2.06 19.47 23.23 23.23 0 0 0 1.73 9.36 26.58 26.58 0 0 0 4.77 7.1c4.27 4.73 9.48 8.63 14.21 12.88 5.16 4.62 10.17 9.4 15.13 14.24 9.07 8.83 18.64 17.83 30.92 21.87a36.73 36.73 0 0 0 18.59 1.42 33.14 33.14 0 0 0 15.25-8 74.41 74.41 0 0 0 11.29-13.36c3.75-5.38 7.25-11 10.5-16.65a224.06 224.06 0 0 0 16.42-35.77c1.11-3.1 2.13-6.23 3.1-9.38.53-1.69-2.13-2.41-2.65-.73a220 220 0 0 1 -14.3 35.18q-4.34 8.49-9.39 16.59a153.78 153.78 0 0 1 -10.21 14.81 46.6 46.6 0 0 1 -12.17 11.22 28.29 28.29 0 0 1 -16.53 3.8c-12.37-.84-22.89-8.21-31.79-16.27-4.67-4.23-9.09-8.72-13.67-13q-7.38-7-15.06-13.58c-4.2-3.62-8.72-7.27-11.34-12.27-3-5.72-2-12.43-1.32-18.58a170.62 170.62 0 0 1 7.52-35.83 117 117 0 0 1 7-16.69q2.08-4 4.52-7.82c1.48-2.33 3-5.19 5.53-6.58 5.31-3 11.79.84 15.81 4.29a125.25 125.25 0 0 1 12.63 13.06 216.93 216.93 0 0 1 22.11 30.26q2.43 4 4.69 8.1a1.44 1.44 0 0 0 2.61-.34 164.23 164.23 0 0 1 10.49-29.19 244.48 244.48 0 0 1 14.4-26.78 53.16 53.16 0 0 1 10.43-12.75c.92-.78-.4-2-1.31-1.3z"/><path d="m590.81 328.77a21 21 0 0 0 -1.71-25.71 8.43 8.43 0 0 0 -4.16-2.71 4 4 0 0 0 -4.35 1.75 7.62 7.62 0 0 0 -4.34-.64c-4.37.22-9 .55-12.48 3.26-3.27 2.58-4.75 6.92-4.84 11.08s1.05 8.25 2.18 12.26" fill="#fff"/><path d="m591.5 329.17a22.09 22.09 0 0 0 2.82-19.79 19.52 19.52 0 0 0 -5.71-8.59c-2.7-2.2-7.15-2.83-9.16.64l1.8-.47a9.87 9.87 0 0 0 -5.4-.79 47.13 47.13 0 0 0 -5.56.54 14.64 14.64 0 0 0 -9.28 5c-5.18 6.5-3.37 15.47-1.1 22.73a1.25 1.25 0 0 0 2.4-.66c-1.61-6.46-3.85-13.87.3-19.89 1.78-2.58 4.6-3.86 7.59-4.46a36 36 0 0 1 4.85-.54c1.59-.09 3.41-.38 4.87.4a1.35 1.35 0 0 0 1.81-.48c1.79-3.08 5.62.22 7 1.88a19.24 19.24 0 0 1 3.8 7.43 19.64 19.64 0 0 1 -2.46 16.29c-.59.87.79 1.64 1.38.81z"/><path d="m578.87 332.74-19.87-45.62a13 13 0 0 0 -2.28-3.91c-3.2-3.35-8.67-2.4-13.14-1.19l-32.58 8.8c-1.66.45-3.41 1-4.54 2.25-2.24 2.56-.87 6.52.6 9.58q18.2 38 36.38 75.94c.79 1.65 1.65 3.39 3.18 4.39 1.77 1.17 4.06 1.11 6.17.92a73.72 73.72 0 0 0 25.07-6.9c3.58-1.71 7.16-3.86 9.21-7.26s2-8.33-1-10.86"/><path d="m579.66 332.52c-3.78-9-7.54-18.07-11.41-27l-5.82-13.52c-.95-2.21-1.85-4.45-2.87-6.62a9.8 9.8 0 0 0 -3.41-4.22c-2.94-1.92-6.76-1.64-10-1-4.51.89-9 2.33-13.38 3.53l-14.13 3.82-6.94 1.87a14.44 14.44 0 0 0 -5.24 2.1c-3.05 2.36-2.6 6.4-1.35 9.62 1.67 4.28 3.92 8.38 5.9 12.52l12.81 26.74 12.7 26.51c2.09 4.35 4.11 8.74 6.27 13.06a9.56 9.56 0 0 0 3.61 4.33 10.3 10.3 0 0 0 5.66.94 72.48 72.48 0 0 0 25.66-6.74c6.35-2.93 13.78-8.22 11.78-16.29a8.17 8.17 0 0 0 -2.52-4.17c-1.2-1.06-3 .71-1.77 1.77 2.4 2.11 2.58 5.66 1.33 8.45-1.49 3.35-4.85 5.49-8 7.1a70.14 70.14 0 0 1 -23.65 7.14 19.28 19.28 0 0 1 -5.72.2c-2-.38-3.1-1.73-4-3.44-2.07-3.92-3.86-8-5.78-12l-11.62-24.27-11.62-24.27-5.92-12.35c-.9-1.89-1.9-3.75-2.67-5.69a9.54 9.54 0 0 1 -.93-4.89c.28-1.82 1.7-2.75 3.33-3.29 2-.64 4-1.1 6-1.64l13.17-3.56 12.93-3.5c3.26-.88 6.8-2 10.22-1.46 4.08.7 5.24 4.39 6.72 7.75l5.4 12.29q5.46 12.4 11 24.74l2.76 6.11c.38.84 1.88.23 1.51-.64z"/><path d="m608 342.24a59.33 59.33 0 0 0 -16.89-18.81c-3.88-2.79-9.6-5-13.07-1.69a5.9 5.9 0 0 0 -.25 8 26.1 26.1 0 0 0 -21.57 1.18c-2.79 1.47-5.6 4.74-4 7.44 1.17 1.9 3.88 2.12 6.05 1.61s4.31-1.51 6.53-1.25c-2.52-.49-5.17-1-7.63-.22s-4.62 3.16-4.16 5.69c.39 2.12 2.47 3.59 4.59 4a16.06 16.06 0 0 0 6.37-.62c-2.49.8-5.2 0-7.8.26s-5.38 2.92-4.11 5.21c.65 1.18 2.09 1.66 3.41 2a34.94 34.94 0 0 0 10.84.72 25.12 25.12 0 0 0 -10.33 1.1 4.6 4.6 0 0 0 -2.93 2.05c-.77 1.61.34 3.5 1.65 4.7a13 13 0 0 0 11.34 3.06l-1.82-2.17a42.76 42.76 0 0 0 29.57 2.5" fill="#fff"/><path d="m552.42 358.44c-2.11 3 1.56 6.41 4 7.74a14.87 14.87 0 0 0 10.06 1.58 1.23 1.23 0 0 0 .53-2c-.61-.73-1.2-1.46-1.84-2.15l-1.16 2a49.15 49.15 0 0 0 14.85 4 44.14 44.14 0 0 0 15.3-1.44 1.19 1.19 0 0 0 -.64-2.3 41.91 41.91 0 0 1 -14.52 1.26 37.52 37.52 0 0 1 -14.14-3.74c-1-.5-2.42.61-1.63 1.63.64.83 1.32 1.62 2 2.43l.54-2a11.45 11.45 0 0 1 -7.51-.92c-2.13-1.08-4.73-3-4.37-5.66.11-.85-1.08-.95-1.48-.39z"/><path d="m608.78 342a34.18 34.18 0 0 0 -6-9.39 65 65 0 0 0 -8.33-8.17c-2.64-2.18-5.63-4.34-9-5.14-3-.71-6.39-.44-8.55 2a7.13 7.13 0 0 0 0 9.29l1.16-2a27.32 27.32 0 0 0 -17.94-.6c-4.21 1.32-12 5.36-8.93 11 .74 1.35 2.79.15 2.06-1.2-1.13-2.08 1.13-4.29 2.73-5.33a20.86 20.86 0 0 1 6.81-2.67 25.51 25.51 0 0 1 14.64 1.13c1.21.46 1.87-1.19 1.16-2a4.67 4.67 0 0 1 2.67-7.59c3.44-.67 7.24 1.73 9.87 3.68a54.87 54.87 0 0 1 9 8.27c2.64 3 4.81 6.4 7.31 9.54.48.61 1.6-.05 1.32-.76z"/><path d="m831.25 722.05c25.86 55.19 56.29 108.22 87.74 160.43 4.3 7.15 8.75 14.41 10.58 22.55s.59 17.46-5.29 23.38c-1.71 1.72-4 4-2.79 6.13.77 1.41 2.63 1.72 4.23 1.84q9.84.76 19.7.58c3.2-.06 6.52-.23 9.35-1.73 4.82-2.57 6.93-8.23 8.65-13.41 5-14.92 3.69-28.28 8.65-43.2 2.77-8.32 5.19-18.5-.68-25-5.53-6.12-15.61-5.53-22-10.71-5.52-4.46-7.09-12.08-8.29-19.07-4.73-27.52-9.26-55.31-19.38-81.34s-26.44-50.51-50.1-65.33"/><path d="m830.45 722.52q13.32 28.56 28.12 56.42c9.82 18.59 20 37 30.5 55.2 10.36 18.05 21.22 35.79 31.71 53.75 4.66 8 8.93 16.69 8.26 26.16a22.05 22.05 0 0 1 -4.04 11.67c-2 2.63-7.05 6.1-4.28 9.86 1.08 1.48 3 1.85 4.69 2 2.62.27 5.28.37 7.91.47a120.2 120.2 0 0 0 15.42-.05c4.29-.38 8.1-1.88 10.83-5.32 2.5-3.14 3.86-7 5.09-10.81 3.18-9.76 3.81-19.95 5.48-30a104.83 104.83 0 0 1 3.64-14.62 46.39 46.39 0 0 0 2.41-12.21 17.5 17.5 0 0 0 -2.92-11c-2.23-3.06-5.47-4.88-9-6.18-3.64-1.37-7.52-2.17-11-3.91a16.67 16.67 0 0 1 -7.83-8.29c-1.75-3.82-2.5-8-3.21-12.16-.87-5.07-1.73-10.15-2.62-15.22-1.78-10.15-3.68-20.28-6-30.32-4.33-18.8-10.16-37.39-19.21-54.49-8-15.17-18.56-29.25-31.91-40.12a104.31 104.31 0 0 0 -10.22-7.35c-1.48-.93-2.83 1.41-1.37 2.33 14.37 9 26.07 21.67 35.18 35.92 9.82 15.37 16.56 32.41 21.49 49.92 5.49 19.52 8.82 39.55 12.26 59.5 1.3 7.58 3 16 9.64 20.79 6.07 4.35 14.64 4 20.21 9.1 6.27 5.76 4.17 15.36 2 22.5a115.1 115.1 0 0 0 -3.68 14.26c-.84 4.8-1.36 9.66-2 14.49a99.87 99.87 0 0 1 -3 14.74c-1.18 3.92-2.51 8.13-5 11.41-2.82 3.69-6.93 4.62-11.37 4.75-5.16.16-10.34 0-15.5-.23-2.26-.12-4.88 0-7.06-.64-2.7-.82-1.05-3.17.23-4.54a25.2 25.2 0 0 0 6.21-10c2.54-8.26.71-17-2.73-24.65a121.61 121.61 0 0 0 -6.9-12.63q-4-6.57-7.9-13.15-7.93-13.26-15.75-26.6-15.51-26.46-30.24-53.36c-9.85-18.08-19.36-36.36-28.38-54.88q-3.27-6.72-6.45-13.48c-.51-1.07-2.1-.13-1.6.94z"/><path d="m641.1 702.27-31.83 105.93c-9.9 32.95-19.82 65.95-32.51 97.93-1.23 3.11-2.55 6.29-4.88 8.69-3.22 3.3-7.89 4.65-11.83 7s-7.48 6.91-6 11.27c4.25 3.56 10.36 3.49 15.9 3.24 14.87-.68 17.13.79 32 .1 3.38-.15 7.13-.47 9.41-3 1.63-1.79 2.12-4.31 2.62-6.68 8.49-39.82 51-73.43 68.17-110.33a181.42 181.42 0 0 0 13.65-110.35"/><path d="m640.28 702.05q-9.48 31-18.91 62-9.25 30.64-18.51 61.28c-6.08 20-12.35 40-19.43 59.67q-2.65 7.41-5.48 14.76c-.91 2.36-1.83 4.72-2.78 7.06a24.45 24.45 0 0 1 -3.34 6.23c-2.72 3.39-7 4.85-10.68 6.8-3.57 1.87-7 4.64-8.26 8.6-.5 1.53-.86 4.27.29 5.61s3.52 2.25 5.22 2.76c4.13 1.24 8.53 1 12.78.79 7.17-.29 14.28.23 21.44.32a85.75 85.75 0 0 0 12.82-.47c4.2-.57 7.46-2.57 8.87-6.71.65-1.93.94-4 1.43-5.94s1-3.73 1.6-5.56a94.51 94.51 0 0 1 4.32-10.77c7-14.8 17-28 27-40.86s20.52-25.68 28.89-39.8c9.27-15.62 15.36-33.27 19-51a183.22 183.22 0 0 0 2.73-57.22c-.52-4.62-1.2-9.23-2.07-13.8-.36-1.86-3.2-1.07-2.84.78a181.19 181.19 0 0 1 1.89 56.3 174.63 174.63 0 0 1 -15.63 54c-6.82 14.25-16.54 26.94-26.2 39.35-10 12.82-20.29 25.48-28.67 39.42a118 118 0 0 0 -10 20.63 83.59 83.59 0 0 0 -3.08 10.87c-.44 2-.89 4.28-2.43 5.79a9.11 9.11 0 0 1 -5.34 2.13c-7.25.92-14.7.31-22 0q-5.86-.22-11.75 0c-4.15.16-8.47.5-12.48-.81a12.1 12.1 0 0 1 -2.77-1.31 2.1 2.1 0 0 1 -.81-.68 3.65 3.65 0 0 1 -.14-1.61 8.73 8.73 0 0 1 2.67-5.28c2.89-3.06 7-4.35 10.61-6.36a19.09 19.09 0 0 0 8.28-9.15c2-4.49 3.7-9.18 5.43-13.8 7.23-19.2 13.57-38.71 19.61-58.31 6.13-19.89 12-39.84 18-59.78q9.06-30.32 18-60.66l4.36-14.81a.85.85 0 0 0 -1.64-.45z"/><path d="m711.91 182.46a10.8 10.8 0 0 1 -19.91-3.61c-.55-3 1.25-7 4.32-6.67a8.73 8.73 0 0 1 6.18-14.18 21.51 21.51 0 0 1 3.82-10.83 10.07 10.07 0 0 1 4.69-4 5 5 0 0 1 5.64 1.47 15.69 15.69 0 0 1 22.71-8c3.27-3.93 7.9-7.06 13-7.21s10.46 3.42 11.1 8.49a11 11 0 0 1 18.21 10.9 9.24 9.24 0 0 1 10.87 13.57 10 10 0 0 1 4.81 17.25c3.87 1.7 5.84 6.4 5.26 10.59s-3.24 7.85-6.43 10.62c2.8 1.32 4.19 4.76 3.74 7.83a12.94 12.94 0 0 1 -4.81 7.72c-.84.7-2.39 1.18-2.78.16.95-1 2.79-.37 3.43.85a6.1 6.1 0 0 1 .16 4.05 15.65 15.65 0 0 1 -3.17 7.38c-1.81 2-4.83 3.17-7.32 2.09 2.74 1.58 1.83 6.28-1 7.65s-6.33.17-8.8-1.8a6.7 6.7 0 0 1 -12 3.52c1-.07 1.75 1.28 1.38 2.26a3.07 3.07 0 0 1 -2.49 1.69c-3.11.49-6-1.68-8.24-3.85a76.46 76.46 0 0 1 -11-13"/><path d="m711.13 182a9.94 9.94 0 0 1 -14.28 2.47 9.38 9.38 0 0 1 -3.64-6.52c-.08-1.89.85-4.66 3.14-4.49a1.28 1.28 0 0 0 1.1-1.92c-3.51-4.64-1-11.61 5-12.21a1.34 1.34 0 0 0 1.3-1.3 20.16 20.16 0 0 1 3.88-10.49 8.06 8.06 0 0 1 4-3.15 3.66 3.66 0 0 1 3.82 1 1.34 1.34 0 0 0 2.42-.31 14.54 14.54 0 0 1 20.75-7.22 1.38 1.38 0 0 0 1.66-.21c3.15-3.72 7.63-7 12.72-6.78 4.26.15 8.42 3.12 9.05 7.47.16 1.13 1.67 1.26 2.38.62a9.53 9.53 0 0 1 15.71 9.49 1.56 1.56 0 0 0 1.9 1.9 7.69 7.69 0 0 1 9.12 11.3 1.56 1.56 0 0 0 .93 2.27 8.43 8.43 0 0 1 4.13 14.67 1.55 1.55 0 0 0 .31 2.43 8.57 8.57 0 0 1 4.57 8.57c-.31 4.11-3.06 7.6-6 10.24a1.51 1.51 0 0 0 .3 2.36 6.14 6.14 0 0 1 2.89 7.08 10.42 10.42 0 0 1 -2.15 4.08 16.17 16.17 0 0 1 -1.63 1.68 3.71 3.71 0 0 1 -.75.55.93.93 0 0 1 -.33.12c-.25 0-.21.07.14.16l-.22 1.76c.32-.28.93.22 1.1.47a3.62 3.62 0 0 1 .19 2.41 18.81 18.81 0 0 1 -1.4 4.95c-1.29 2.83-4.15 5.41-7.43 4.12-1.59-.63-2.45 1.81-1.12 2.66 1.65 1.06.88 3.78-.45 4.79-2.25 1.7-5.66.26-7.6-1.24a1.49 1.49 0 0 0 -2.5 1 5.42 5.42 0 0 1 -3.9 4.54 5.52 5.52 0 0 1 -5.62-2.07l-1 2.52c-.14 0 .07.18-.05.35a1.79 1.79 0 0 1 -1.1.63 4.93 4.93 0 0 1 -3.09-.43 19.41 19.41 0 0 1 -5.5-4.38 81.33 81.33 0 0 1 -9.31-11.32c-1-1.54-3.56-.12-2.52 1.47a75.54 75.54 0 0 0 6.49 8.51 42.77 42.77 0 0 0 7.73 7.36c2.47 1.67 6.13 2.77 8.78.82 2.37-1.76 1.79-5.78-1.43-6-1.41-.08-1.78 1.61-1.05 2.52a8.32 8.32 0 0 0 8.83 2.72 8.44 8.44 0 0 0 5.71-7.28l-2.5 1c3.24 2.51 8.48 4.33 11.92 1.07 2.59-2.47 2.89-7.17-.33-9.22l-1.12 2.67a7.75 7.75 0 0 0 7.18-1.14 12.54 12.54 0 0 0 4.36-6.59c.75-2.35 1.73-5.61.42-7.93a3.77 3.77 0 0 0 -5.71-1.15 1.48 1.48 0 0 0 -.23 1.76c1.1 2 3.62 1.32 5.07.14a15.25 15.25 0 0 0 4.52-6c1.74-4.23.59-9.72-3.72-11.92l.3 2.37c3.69-3.24 6.78-7.66 7-12.72.19-4.37-2-9-6.11-10.89l.31 2.43a11.5 11.5 0 0 0 -5.47-19.71l.92 2.27a10.79 10.79 0 0 0 -12.61-15.84l1.9 1.9a12.49 12.49 0 0 0 -20.7-12.32l2.38.63c-.82-5.37-6-9-11.12-9.47-6-.56-11.63 3.2-15.34 7.6l1.66-.21a17.05 17.05 0 0 0 -24.68 8.87l2.42-.31c-2.89-3.76-7.95-2.64-10.91.41a22.15 22.15 0 0 0 -5.72 13.56l1.3-1.29a10 10 0 0 0 -7.26 16.09l1.11-1.92c-3.28-.25-5.26 2.9-5.61 5.8-.41 3.37 1.38 6.81 3.85 9a11.87 11.87 0 0 0 18.11-2.81.91.91 0 0 0 -1.57-.92z"/><path d="m720.84 246.05a171.88 171.88 0 0 1 7 25.22 4 4 0 0 0 .75 2 3.84 3.84 0 0 0 2.85.93 36.15 36.15 0 0 0 17.56-4.39 54.33 54.33 0 0 0 14.36-11.29 107.11 107.11 0 0 1 -12.94-24.95c-.13-.34-.16-.87.2-.94" fill="#fff"/><path d="m720 246.27c1.15 4.86 2.67 9.63 3.91 14.47.63 2.46 1.21 4.94 1.75 7.42.41 1.89.46 4.62 1.86 6.11s3.75 1.4 5.66 1.34a35.3 35.3 0 0 0 6.79-.9 41.61 41.61 0 0 0 12.72-5.37 59.32 59.32 0 0 0 11.67-9.83 1.44 1.44 0 0 0 .22-1.7 109.3 109.3 0 0 1 -7.4-12c-1.07-2.05-2.07-4.14-3-6.25-.5-1.13-1-2.27-1.43-3.41-.22-.56-.44-1.11-.65-1.67-.11-.3-.57-1.09-.46-1.41l-.58.75.2-.13c1.35-.87.1-3-1.26-2.16a2 2 0 0 0 -.78 2.36 32.27 32.27 0 0 0 1.43 3.76c1 2.52 2.12 5 3.32 7.45a109.4 109.4 0 0 0 8.19 14.1l.22-1.69c-5.64 6-12.4 11.18-20.36 13.66a33.39 33.39 0 0 1 -6.39 1.37q-1.56.17-3.12.18c-.74 0-2.07.17-2.72-.32s-.65-1.77-.79-2.47c-.22-1.09-.44-2.18-.68-3.26-.5-2.25-1.06-4.48-1.66-6.7a80 80 0 0 0 -5.1-14.37c-.44-.9-1.77-.26-1.56.65z"/><path d="m702.57 187.86a46.47 46.47 0 0 1 -8.52 20.3c-1.49 2-3.11 5-1.28 6.69a10.92 10.92 0 0 0 1.84 1.1c2.62 1.65 2.66 5.39 2.5 8.48-.35 6.6.12 14 4.94 18.53s12.05 4.54 18.43 3.36c17.54-3.26 34.16-15.67 38.35-33 2-8.11 1.14-16.71-1.23-24.71-1.77-6-4.49-11.82-9-16.09-8.16-7.69-21.11-8.73-31.54-4.6-7.14 2.83-14 12.28-14.47 20" fill="#fff"/><path d="m759.64 213.54a43.52 43.52 0 0 0 -7.77-37.61 30 30 0 0 0 -15.75-10.58 30.38 30.38 0 0 0 -21.3 2.51c-7.51 3.89-13.15 11.34-13.21 20 0 1.27 1.77 1.19 1.92 0a22.73 22.73 0 0 1 11-16.89 27.82 27.82 0 0 1 19.63-3.43c12.19 2.51 20.05 13.57 23 25a45.58 45.58 0 0 1 .84 20.51.84.84 0 0 0 1.62.45z"/><path d="m701.76 187.64a51 51 0 0 1 -6.89 17.05c-1.46 2.3-3.62 4.49-4.1 7.27a4.21 4.21 0 0 0 .65 3.29c.8 1.07 2.11 1.32 3 2.21 1.66 1.62 1.47 4.53 1.38 6.64a49.31 49.31 0 0 0 .18 8.33c.66 5.18 2.71 10.21 7.28 13.11 5.06 3.22 11.82 3.17 17.45 1.71 1-.27.85-2-.26-1.89-4.89.51-10.27 1-14.8-1.4-4.72-2.45-6.7-7.43-7.2-12.48a54.36 54.36 0 0 1 -.06-7.55 13.69 13.69 0 0 0 -1-6.62 6.11 6.11 0 0 0 -1.93-2.29c-1-.69-2.4-.92-2.26-2.38a7.31 7.31 0 0 1 1.47-3.23c.86-1.26 1.77-2.48 2.58-3.78a44.06 44.06 0 0 0 6.09-17.77c.12-.94-1.46-1.15-1.65-.22z"/><path d="m703.69 201.93a6 6 0 0 1 .58.93l-.11-.26a1.56 1.56 0 0 1 .1.37v-.31a1 1 0 0 1 0 .34v-.32a1.84 1.84 0 0 1 -.1.42l.12-.3a.54.54 0 0 1 -.11.18l.2-.25a.71.71 0 0 1 -.15.15l.25-.2a.1.1 0 0 1 -.05 0h1.27-.05l.26.2a.54.54 0 0 1 -.15-.15l.2.26a.81.81 0 0 1 -.1-.18l.12.3a1.46 1.46 0 0 1 -.05-.2l.05.34a1.48 1.48 0 0 1 0-.21v.35a.8.8 0 0 1 .05-.21l-.13.32a.14.14 0 0 1 0-.06 1.26 1.26 0 0 0 .18-.66v-.35a1.24 1.24 0 0 0 -.76-.85 1.27 1.27 0 0 0 -1 0 1 1 0 0 0 -.42.27 1.37 1.37 0 0 0 -.34.58 2 2 0 0 0 -.1.64 3.93 3.93 0 0 0 .06.48 1 1 0 0 0 .05.16 2.1 2.1 0 0 0 .95 1.18 1.4 1.4 0 0 0 .8.15.59.59 0 0 0 .32-.09 1 1 0 0 0 .41-.26l.12-.13a1.77 1.77 0 0 0 .26-.35 1.9 1.9 0 0 0 .23-.57 2.09 2.09 0 0 0 0-.93 2.37 2.37 0 0 0 -.21-.58 2.42 2.42 0 0 0 -.63-.79 3 3 0 0 0 -.51-.37l-.38-.2a.86.86 0 0 0 -1 .13 1.11 1.11 0 0 0 -.22.38.83.83 0 0 0 .09.65z"/><path d="m732.09 202.88a1.89 1.89 0 0 0 -1.6.3 2.82 2.82 0 0 0 -1 1.4 6 6 0 0 0 -.29 1.46 3.25 3.25 0 0 0 .31 1.6.91.91 0 0 0 1.24.33 1.62 1.62 0 0 0 .72-1.31 1.75 1.75 0 0 0 -.17-.75 1.54 1.54 0 0 0 -.54-.59.93.93 0 0 0 -.73-.1.95.95 0 0 0 -.23 1.73c.13.09-.16-.16-.06 0 0 0-.14-.21-.07-.08s-.06-.23 0-.09 0 0 0-.08c0 0 0 .18 0 0s0 0 0 0c.07-.15.09-.19 0-.13v.06l.09-.12c-.06.06 0 0 .1-.06l1.23.32a.54.54 0 0 0 -.05-.11c.11.16.05.11 0 0l-.06-.23c0-.15 0 0 0 0a.21.21 0 0 0 0-.11v-.27a2.45 2.45 0 0 1 0-.27c0-.12 0 0 0 0s0-.08 0-.12a4.82 4.82 0 0 1 .11-.52 2 2 0 0 1 .07-.23s.07-.18 0-.06 0 0 0 0l.13-.23c.07-.1 0 0 0 0s0-.06.07-.08l.1-.09c.07-.07-.13.08 0 0l.09-.05c.14-.07 0 0 0 0h.1c.12 0 0 0-.07 0a.71.71 0 0 0 .14 0 .85.85 0 0 0 1-.58.83.83 0 0 0 -.58-1z"/><path d="m710.58 192h-.1l.48.38c-.24-.56-1-.65-1.53-.76l-1.43-.32c-1-.21-1.92-.47-2.9-.61a1.11 1.11 0 0 0 -.59 2.15c1 .22 2 .33 3 .48l1.45.22c.62.09 1.43.34 1.93-.19l-.57.24h.11a.78.78 0 0 0 .78-.68.8.8 0 0 0 -.57-.87z"/><path d="m725.24 202.33c1.61-2.6 3.69-5.38 6.73-5.78a6.39 6.39 0 0 1 6.43 4.07 8.91 8.91 0 0 1 -.91 7.84 15.19 15.19 0 0 1 -6.08 5.34 78.76 78.76 0 0 0 14.67 21.11c2 2 4.41 4.1 7.24 3.91q3.13-6 6.47-11.89c1.57-2.75 3.17-5.5 4.53-8.36 4.15-8.69 6-18.7 3.84-28.08s-8.87-17.92-18-21a4.13 4.13 0 0 1 -1.64-.84 6 6 0 0 1 -.9-1.6 9.21 9.21 0 0 0 -4.22-3.58c-5.14-2.69-10.89-4.61-16.66-4.07-7 .66-13.19 4.85-19 8.9l-6.65 4.66a2.65 2.65 0 0 0 -1.3 1.54c-.17.92.63 1.7 1.36 2.29 6.38 5.14 15-.6 22.16 3.32 1.45.79 1.26 12 1.95 13.47 1.14 2.49-.67 5.4-.2 8.1"/><path d="m725.94 202.74c1.29-1.86 2.88-4 5.11-4.78a5.08 5.08 0 0 1 5.91 2.47c2.91 5-2.05 10.12-6.17 12.32a1.24 1.24 0 0 0 -.43 1.66 81.67 81.67 0 0 0 9.72 15.7 62 62 0 0 0 6 6.73c2 1.88 4.39 3.46 7.23 3.37a1.38 1.38 0 0 0 1.2-.69c1.87-3.56 3.79-7.11 5.77-10.62s4-6.82 5.62-10.41a47.24 47.24 0 0 0 4.58-20.66c-.31-12.31-7.12-24.66-18.92-29.31a6.13 6.13 0 0 1 -2.07-.86c-.5-.48-.67-1.38-1.07-2a10.48 10.48 0 0 0 -3.66-3.08 39.45 39.45 0 0 0 -9.76-3.88c-7-1.7-13.77-.24-20 3.3a104.89 104.89 0 0 0 -9.08 5.94l-4.7 3.28c-1.2.84-2.65 1.7-2.79 3.31-.25 3 3.92 5 6.33 5.57 2.86.69 5.81.36 8.71.14a27.59 27.59 0 0 1 5.22 0 11.44 11.44 0 0 1 2.53.56c.37.13.71.3 1.07.45s.46.25.18.05c-.12-.18-.14-.19 0-.05a15 15 0 0 1 .45 2c.15 1.12.22 2.24.3 3.36a64.12 64.12 0 0 0 .54 6.64 13 13 0 0 1 .54 3.35 19.79 19.79 0 0 0 -.11 5.38 1 1 0 0 0 2-.27c-.1-1.65.53-3.14.82-4.74a7.74 7.74 0 0 0 -.27-3.91 20.68 20.68 0 0 1 -.45-4.29c-.13-2.05-.26-4.1-.54-6.13-.19-1.31-.38-3-1.59-3.74-2.37-1.55-5.65-1.74-8.38-1.65s-5.65.59-8.49.38a9.79 9.79 0 0 1 -3.72-1 6.87 6.87 0 0 1 -1.85-1.3c-.22-.24-.44-.36-.33-.69s.86-.67 1.12-.85c3-2.07 5.89-4.18 8.87-6.2 5.42-3.66 11.38-7.06 18.13-6.86a28.09 28.09 0 0 1 10.07 2.41 36.84 36.84 0 0 1 4.23 2.08 7.24 7.24 0 0 1 3 3.22 4.78 4.78 0 0 0 3 2.39 24.09 24.09 0 0 1 4 1.81 26.09 26.09 0 0 1 6.54 5.44 30.11 30.11 0 0 1 7.06 15.88 42.69 42.69 0 0 1 -3.54 22.34 121.26 121.26 0 0 1 -5.73 10.81q-3.09 5.48-6 11.05l1.19-.68c-2.58.08-4.57-1.76-6.28-3.49a74.48 74.48 0 0 1 -5.62-6.41 77.49 77.49 0 0 1 -9-14.35l-.44 1.66a15.62 15.62 0 0 0 7.1-6.86c1.36-3 1.51-6.64-.45-9.39a7.21 7.21 0 0 0 -7.72-3c-3.07.92-4.93 3.7-6.41 6.35a.81.81 0 0 0 1.4.82z"/><path d="m703.14 224.73h1 .05a2.56 2.56 0 0 0 .27.05 4.1 4.1 0 0 1 .5.14l.23.09h-.06l.11.05.45.26.22.16-.06-.05.09.08a3.59 3.59 0 0 1 .39.39 1.08 1.08 0 0 0 1.52 0 1.1 1.1 0 0 0 0-1.52 5.44 5.44 0 0 0 -2.37-1.31 5.23 5.23 0 0 0 -1.31-.17 5.49 5.49 0 0 0 -.58 0 3.28 3.28 0 0 0 -.91.27.84.84 0 0 0 -.38.93.87.87 0 0 0 .8.61z"/><path d="m728.68 211.08a8.5 8.5 0 0 0 -6.31 3.75c-1.62 2.32-2.1 5.6-.32 8a8.85 8.85 0 0 0 7.36 3.37 9.05 9.05 0 0 0 7-3.8 7.2 7.2 0 0 0 .18-8.71c-.73-.92-2.2.26-1.6 1.24 1 1.64.41 3.92-.53 5.48a6.31 6.31 0 0 1 -4.39 3 6.52 6.52 0 0 1 -5.23-1.5 3.43 3.43 0 0 1 -1.27-2.65 6.2 6.2 0 0 1 .62-2.64 7.52 7.52 0 0 1 4.74-3.94c.84-.23.7-1.63-.21-1.56z" fill="#18c4ff"/><path d="m716.78 280.62c-5.11-2.6-5.21-10.44-1.64-14.92s9.36-6.43 14.83-8.16l33.36-10.54a13.37 13.37 0 0 1 16.8 8.8l2.37 7.66c65.51-8.19 56.8 51.42 62.77 89.33s2 77.09 10.45 114.52c7.1 31.35 22.62 60 38.25 88.12q23.82 42.8 48.52 85.09c8.77 15 17.89 33 11.1 49-3.94 9.28-12.49 15.68-21 21.06-59.93 37.78-133.59 46.17-204.49 47.2-35.1.52-71-.68-103.84-13.09-8-3-15.91-6.83-21.57-13.18-15-16.85-8.46-43.12-.57-64.27 35-93.75 80-186.72 83.62-286.71.66-18-12.09-51.09-8.89-68.8s22.89-20.45 37.09-31.51" fill="#fff"/><path d="m800.18 390.84a879.87 879.87 0 0 0 7 100.9q3.08 25.08 7.31 50 2.1 12.3 4.49 24.54c1.35 6.92 2.42 14.09 5.11 20.65a26.32 26.32 0 0 0 5.66 8.91 19.08 19.08 0 0 0 4.15 3.09c1.76 1 3.74 1.67 5.31 3 3.23 2.63 2.08 6.39.59 9.64s-3.33 6.53-3.53 10.24a1.25 1.25 0 0 0 1.24 1.25c3.71-.19 6.81 2 8.81 5 2.35 3.53 2.83 7.8 2.85 12 0 4.39-.35 8.77-.16 13.16a106.48 106.48 0 0 0 1.43 13.09c2.92 17.43 8.8 34.61 16.18 50.64 1 2.27 2.13 4.53 3.25 6.77.88 1.76 1.43 4.28 3.58 4.67a7.09 7.09 0 0 0 7.78-4.62c.53-1.43-1.75-2-2.28-.63a4.64 4.64 0 0 1 -5.72 2.71l.72.55a227.46 227.46 0 0 1 -17.58-45.11 136.81 136.81 0 0 1 -4.59-24.29 101.94 101.94 0 0 1 -.19-12.36 48.68 48.68 0 0 0 -.47-11.38c-1.28-6.48-6.4-13.14-13.61-12.74l1.24 1.24c.3-6 6.53-11.48 4.7-17.72-1-3.21-3.79-4.83-6.61-6.21a19.25 19.25 0 0 1 -7.65-6.19c-4-5.59-5.33-12.55-6.68-19.12q-2.47-12.1-4.66-24.27c-6-33.54-10.5-67.39-13.24-101.36-1.5-18.64-2.49-37.34-2.77-56.05a.83.83 0 0 0 -1.66 0z" fill="#18c4ff"/><path d="m677.58 312.16c.85-1.36 1-3.13 1.71-4.59a26.62 26.62 0 0 1 2.2-3.89 26.33 26.33 0 0 1 6.27-6.19c5.28-3.84 11.23-6.6 16.91-9.78a82.36 82.36 0 0 0 9.93-6.35 1.31 1.31 0 1 0 -1.59-2.07c-5.6 4.36-12.07 7.31-18.29 10.64-5.67 3-11.28 6.51-15.08 11.83a20.29 20.29 0 0 0 -2.54 4.72c-.6 1.64-1.4 3.71-1.07 5.47a.86.86 0 0 0 1.55.21z"/><path d="m717.21 279.88c-4.23-2.46-4.31-8.17-2.2-12.11 2.53-4.71 8.23-6.88 13-8.47 3.57-1.18 7.17-2.26 10.76-3.39l17.61-5.55c3.8-1.2 8.21-3.22 12.26-2.79a12.45 12.45 0 0 1 10.45 8.75c.82 2.46 1.52 5 2.29 7.44a1.16 1.16 0 0 0 1.12.85c13.15-1.58 27.8-1.22 38.87 7 8.76 6.49 13.31 16.82 15.9 27.11 2.84 11.34 3.65 23.08 4.61 34.7 1.34 16.05 4 31.91 5 48 1.43 23 1.29 46.14 4.43 69 3 22.09 10 43.08 19.33 63.28 9.5 20.59 20.87 40.29 32 60q17.56 31.3 35.58 62.3c9.87 17 24.48 40 10.63 58.91-5.94 8.11-15.14 13.49-23.67 18.49a251.6 251.6 0 0 1 -27 13.66c-38.32 16.64-80.07 24-121.51 27.25-21 1.63-42.14 2.29-63.21 2.21-22.58-.09-45.33-1.39-67.37-6.6-10.4-2.46-21.06-5.56-30.58-10.49-9-4.65-16-11.72-18.86-21.57-5.29-18.08 2-37.77 8.34-54.61 15.56-41.4 32.75-82.19 47.5-123.9 14.57-41.21 26.77-83.49 32-127q1.9-15.85 2.52-31.81c.06-1.69-2.57-1.69-2.63 0-1.7 45.24-11.94 89.58-25.76 132.55-13.94 43.29-31.37 85.34-47.84 127.7-3.94 10.11-8 20.21-11.55 30.45-3.11 8.89-5.68 18.06-6.61 27.46-.86 8.64-.17 17.62 3.59 25.55 4.18 8.82 11.93 14.78 20.61 18.82 19.9 9.25 42.37 13.1 64.08 14.91 22.34 1.86 44.87 1.51 67.25.69 42.24-1.55 84.87-6.28 125.25-19.33a265.91 265.91 0 0 0 56.89-25.75c7.92-4.83 16-10.16 21.41-17.9 5.68-8.18 6.65-18.13 4.49-27.68-2.35-10.42-7.7-19.94-13-29.09q-9.27-15.92-18.46-31.92c-12-20.89-23.9-41.83-35.47-63-11-20.12-21.51-40.72-28.35-62.69-7.11-22.79-9-46.45-10-70.17-.51-11.88-.88-23.78-1.78-35.64-.72-9.6-2.22-19.05-3.36-28.6-1.4-11.77-1.87-23.63-3.49-35.37-1.52-11-3.95-22.48-10.1-31.94s-15.92-15.36-27.06-17.26a77.93 77.93 0 0 0 -22.62-.1l1.13.85c-2-6.54-3.43-13.59-10.39-16.66-5.39-2.38-10.33-.54-15.51 1.11l-19.73 6.33c-5.07 1.61-10.37 3-15.24 5.15s-9.52 5.52-10.72 10.88c-1 4.34.24 9.23 4.34 11.46a.85.85 0 0 0 .86-1.47z"/><path d="m781.47 281.7c-14.81 23.09-23.18 49.59-34.09 74.75-2.75 6.35-6.84 13.5-13.72 14.19-3.14.32-6.22-.85-9.17-2l-99.38-38.78c-6.16-2.41-13.24-4.79-19.15-1.81s-8.23 10.15-9.77 16.6c-3.6 15-6.25 30.6-4.2 45.93s9.41 30.52 22.28 39.08c7.68 5.1 16.76 7.56 25.73 9.64a419 419 0 0 0 75.18 10.4c20.2.95 42.3-.23 57.62-13.43 7.23-6.22 12.24-14.59 16.82-23a402.83 402.83 0 0 0 28.45-65" fill="#fff"/><path d="m780.8 281.31c-11.19 17.2-18.77 36.33-26.41 55.28-1.93 4.81-3.86 9.62-5.87 14.39-1.75 4.15-3.41 8.41-5.95 12.14-2.17 3.2-5.3 6.17-9.36 6.4a18.39 18.39 0 0 1 -7.56-1.69c-2.61-1-5.2-2-7.8-3.06q-31.79-12.5-63.61-24.9l-16-6.25c-5.18-2-10.34-4.18-15.58-6.05-4.4-1.57-9.23-2.82-13.91-1.83a15 15 0 0 0 -9.64 7.27 40.34 40.34 0 0 0 -4.2 11.54c-1.3 5.42-2.46 10.87-3.32 16.38-1.67 10.6-2.28 21.45-.52 32.08a62.5 62.5 0 0 0 9.38 24.39 47.57 47.57 0 0 0 20.28 17.24c9.44 4.22 19.82 6.23 29.9 8.28q16.27 3.33 32.78 5.35t33 2.75a140.92 140.92 0 0 0 27.03-1.02c8.66-1.3 17.26-4 24.66-8.76 8-5.18 13.9-12.69 18.74-20.81 5.34-9 10-18.37 14.47-27.81q6.77-14.4 12.41-29.3c1.85-4.88 3.55-9.81 5.22-14.76.37-1.1-1.37-1.58-1.74-.48a396.91 396.91 0 0 1 -25 58.16c-4.53 8.61-9.14 17.52-15.69 24.82a49.08 49.08 0 0 1 -22.14 13.94 94.39 94.39 0 0 1 -26.31 3.72 281.43 281.43 0 0 1 -29.89-1.38q-16.33-1.43-32.51-4.16c-10.5-1.76-21-3.81-31.3-6.54-9.25-2.44-18.25-6-25.24-12.73a53.06 53.06 0 0 1 -13.25-22c-3-9.38-3.72-19.29-3.08-29.08a137.82 137.82 0 0 1 2.13-16.2c.93-4.94 2-9.92 3.32-14.75 1.09-3.85 2.59-7.85 5.53-10.69 3.4-3.28 8.14-3.68 12.59-2.76 5 1 9.73 3.2 14.45 5l15.79 6.16q31.13 12.13 62.24 24.24c5.26 2 10.5 4.08 15.76 6.1 4.25 1.63 8.68 2.78 13 .77 3.45-1.61 6-4.75 7.88-8a95 95 0 0 0 5.6-12.22c7.72-18.61 14.43-37.66 23.73-55.58 2.27-4.38 4.7-8.68 7.33-12.86.54-.85-.8-1.62-1.34-.78z"/><path d="m554.92 356.76a68.43 68.43 0 0 1 9.28 0c1.24.09 1.25-1.9 0-1.94a70.11 70.11 0 0 0 -9.28.35.83.83 0 0 0 -.8.81.81.81 0 0 0 .8.8z"/><path d="m553.69 349.56a18 18 0 0 1 8.77-1.21 1 1 0 1 0 0-1.94 20.09 20.09 0 0 0 -9.4 1.66c-.84.36-.23 1.83.63 1.49z"/><path d="m553.46 342.68a13.41 13.41 0 0 1 4.77-2.51 15.52 15.52 0 0 1 5.39-.47 1 1 0 0 0 1-1 1 1 0 0 0 -1-1 15.31 15.31 0 0 0 -11.33 3.87c-.81.71.35 1.84 1.17 1.17z"/><path d="m580.88 301.14a19.08 19.08 0 0 0 -4.25 4.53c-1.16 1.66-2.57 3.79-2.57 5.89a3.44 3.44 0 0 0 3.93 3.56 9 9 0 0 0 5-3.32l-2.14-1.24a22.92 22.92 0 0 0 -.95 4.19c-.16 1.26-.27 2.46.62 3.49s2.59-.5 1.65-1.65c-.12-.15 0-.63 0-.82 0-.53.15-1 .25-1.57a20.18 20.18 0 0 1 .89-3c.46-1.21-1.31-2.16-2.14-1.25a7.27 7.27 0 0 1 -3.33 2.32c-1.4.34-1-1.33-.68-2.12a42.15 42.15 0 0 1 4.86-7.86c.5-.69-.5-1.71-1.2-1.19z"/><g fill="#18c4ff"><path d="m521.84 314.14c-1.38-1-1.56-2.91-2.1-4.51-.77-2.24-2.45-4.1-3.18-6.35a2.41 2.41 0 0 1 -.16-1.12c.14-.94 1.11-1.49 2-1.85a28 28 0 0 1 5.16-1.57 1.18 1.18 0 0 1 .81 0 1.26 1.26 0 0 1 .46.62l5.06 11.29a2.42 2.42 0 0 1 .31 1.54c-.2.79-1.1 1.16-1.89 1.37a27.4 27.4 0 0 1 -4.69.82"/><path d="m522.43 313.55a4.76 4.76 0 0 1 -1.43-2.75 16.33 16.33 0 0 0 -1.14-3.21c-.58-1.14-1.28-2.22-1.83-3.37a4.11 4.11 0 0 1 -.61-1.78c0-.48.5-.73.88-.93a18.31 18.31 0 0 1 3.72-1.32 5.72 5.72 0 0 1 1.87-.44h-.08a3.82 3.82 0 0 1 .21.46c.17.38.34.75.5 1.13l3.61 8.05a16.4 16.4 0 0 1 1 2.2c.16.57-.29.72-.77.88a22.74 22.74 0 0 1 -4.71.87c-1.36.12-1.37 2.27 0 2.14a23.94 23.94 0 0 0 5.38-1c1.38-.48 2.53-1.49 2.25-3.09a10 10 0 0 0 -1-2.39l-1.28-2.82-2.28-5.07c-.62-1.38-1.1-3.61-3-3.47a18 18 0 0 0 -4.82 1.36c-1.32.5-3 1.1-3.44 2.59s.59 3.3 1.35 4.59a21.2 21.2 0 0 1 2.38 4.79 6.76 6.76 0 0 0 2.23 3.92c.75.56 1.76-.73 1-1.32z"/><path d="m675.5 320.85a44.06 44.06 0 0 0 1.13 16.33 1 1 0 0 0 1.83-.5 52.57 52.57 0 0 1 -1.3-7.89 63.75 63.75 0 0 1 0-7.94c0-1.06-1.47-1-1.61 0z"/><path d="m725.55 282.43a207.54 207.54 0 0 1 37.18-8.24c1.42-.18 1.43-2.43 0-2.24a200.19 200.19 0 0 0 -37.62 8.88c-1 .34-.58 1.92.44 1.6z"/><path d="m798.59 273c2.14-.33 4.09 1.18 5.06 3 1.13 2.11 1.11 4.64 1 7-.24 4.72-.79 9.44-1.5 14.11a190.27 190.27 0 0 1 -6.26 26.89c-5.48 17.91-13 35.08-21.23 51.89q-3.45 7.08-7 14.1l-3.49 6.89a7.6 7.6 0 0 1 -1.88 2.81c-.59.41-1.95.47-1.85-.55s-1.27-1.43-1.9-.79c-7.34 7.45-18.43 7.88-28.18 6.74-10.56-1.23-21.1-3.21-31.55-5.14-20.64-3.81-41.17-8.54-61.08-15.23a284.81 284.81 0 0 1 -33-13.35 1.15 1.15 0 0 0 -1.72 1 2.44 2.44 0 0 1 -2.91 2.5 2.52 2.52 0 0 1 -1.38-3.39c.57-1.37-1.66-2-2.22-.61a4.58 4.58 0 1 0 8.79 1.5l-1.72 1c19.42 9.31 39.91 16.15 60.76 21.42 10.53 2.67 21.16 4.93 31.83 6.94s21.3 3.9 32 5.34c11 1.48 23.58 1.36 31.94-7.11l-1.91-.79a3 3 0 0 0 3.06 3.09c2 .1 3.41-1.58 4.29-3.19 2.45-4.45 4.62-9.09 6.88-13.64 4.69-9.4 9.25-18.87 13.44-28.5 8.26-19 15.1-38.76 18.08-59.35.41-2.83.75-5.68 1-8.53a60.66 60.66 0 0 0 .45-8.73 10.58 10.58 0 0 0 -2.38-6.66 6.48 6.48 0 0 0 -5.86-2.2c-1 .17-.59 1.73.43 1.58z"/><path d="m571.92 903.16a4 4 0 0 0 1.83 4.5 4.15 4.15 0 0 0 4.93-.72c3.78-3.48 1.14-8.39-1.31-11.72l-1.82 1.4c1.37 1.75 3 3.47 5.29 3.79a4.56 4.56 0 0 0 4.88-2.64c1.88-4 .59-9.42-1.62-13l-2 1.51c1.43 1.54 3.09 3.07 5.32 3.08a4 4 0 0 0 3.95-3.42c.35-2.09-.5-4.14-1.18-6.07-.94-2.66-1.89-5.31-2.8-8-.54-1.6-3.11-.89-2.53.7 1.3 3.5 2.83 7.06 3.79 10.67.29 1.07.69 3-.69 3.48-1.63.57-3.13-1.2-4.1-2.23a1.25 1.25 0 0 0 -2 1.51 13.52 13.52 0 0 1 2 9.44c-.28 1.48-1.06 2.85-2.79 2.59s-2.9-1.77-3.92-3c-.82-1-2.62.36-1.82 1.4 1.6 2.08 4 5 2.81 7.75a3 3 0 0 1 -2.75 2.11 2.41 2.41 0 0 1 -1.89-2.86c.12-.94-1.39-1.1-1.62-.22z"/><path d="m913.73 878.41a4.87 4.87 0 0 1 2.27-2.81 5 5 0 0 1 1.66-.62c.22 0 1.57-.2 1.72 0s-.39 1.68-.5 2a15.92 15.92 0 0 1 -.71 1.89 18.63 18.63 0 0 1 -2.33 3.91c-.94 1.21.61 2.91 1.74 1.74a9.06 9.06 0 0 1 3-2.11c.69-.29 2.92-1.13 3.35-.28s-.59 2.52-1 3.18a7.13 7.13 0 0 1 -2.6 2.4l1.37 2.34c1.16-.81 2.48-1.82 3.95-1.93s2.46.71 2.27 2.19a38.27 38.27 0 0 1 -1.17 4.95c-.18.65-.76 4-1.54 4-1.86-.06-1.86 2.85 0 2.89 2.52.05 3.29-2.58 3.85-4.55.38-1.35.73-2.72 1-4.08a14.39 14.39 0 0 0 .64-4 4.46 4.46 0 0 0 -3.91-4c-2.44-.41-4.59.92-6.5 2.26-1.4 1-.17 3.23 1.37 2.34a10 10 0 0 0 4-4.19c.77-1.56 1.51-3.84.37-5.39s-3.36-1.36-5-.89a11.37 11.37 0 0 0 -5.2 3.2l1.93 1.49a21.45 21.45 0 0 0 3.19-6.06c.55-1.66 1.47-4.27-.64-5.2-3.45-1.52-7.52 1.59-8.23 4.92a.84.84 0 0 0 1.62.45z"/><path d="m592.74 858.34a119.14 119.14 0 0 0 21.42 10.88 110.59 110.59 0 0 0 11.51 3.78c4 1 8.14 1.71 11.86 3.52 1.37.67 2.58-1.39 1.2-2.06-3.67-1.77-7.64-2.5-11.56-3.5s-7.79-2.16-11.59-3.52a117 117 0 0 1 -22-10.64c-1-.6-1.85.92-.89 1.54z"/><path d="m898.72 846a242.56 242.56 0 0 0 41.06-29.6c1.15-1-.54-2.7-1.68-1.69a271.84 271.84 0 0 1 -40.28 29.76.89.89 0 0 0 .9 1.53z"/><path d="m626.55 95.28a62.91 62.91 0 0 0 -22.41 32.63c-3.76 12.7-4 27.52 1.43 39.8 1.59 3.59 4.08 7 7.74 8.7 3.41 1.54 7.61 1.64 10.67-.72a1.21 1.21 0 0 0 -1.22-2.08c-8.76 4-10.56 15.13-9.76 23.7a62.22 62.22 0 0 0 11.08 29.95 61.27 61.27 0 0 0 12.56 13.21 1.31 1.31 0 1 0 1.59-2.06 60 60 0 0 1 -22.41-38.33 35.94 35.94 0 0 1 .19-13.32c1.07-4.66 3.47-9 8-11.07l-1.46-1.89c-2.52 2-6.16 1.6-8.83.16-3-1.65-5-4.73-6.28-7.83a51.68 51.68 0 0 1 -3.66-18.35 63.08 63.08 0 0 1 9.68-35.27 57.94 57.94 0 0 1 14.15-15.46c1-.78 0-2.56-1-1.77z"/><path d="m831.61 193.87a77.49 77.49 0 0 0 -15.42 25.39c-.4 1.13 1.36 1.59 1.79.5a81.37 81.37 0 0 1 14.75-24.76c.67-.76-.44-1.88-1.12-1.12z"/><path d="m836.56 237.1c4.12-4 8-8.1 12.44-11.76a127.78 127.78 0 0 1 14.12-10 1 1 0 0 0 -1-1.72 109.59 109.59 0 0 0 -14.12 10.08 83.7 83.7 0 0 0 -12.54 12.3c-.6.77.36 1.82 1.1 1.1z"/><path d="m860.39 258.28a154 154 0 0 0 23.61-12.46c1.18-.76.08-2.66-1.1-1.89a174.68 174.68 0 0 1 -23.28 12.57c-1 .45-.27 2.2.75 1.78z"/></g></svg>