<?xml version="1.0" ?><svg height="64" id="svg8" version="1.1" viewBox="0 0 16.933333 16.933334" width="64" xmlns="http://www.w3.org/2000/svg" xmlns:cc="http://creativecommons.org/ns#" xmlns:dc="http://purl.org/dc/elements/1.1/" xmlns:inkscape="http://www.inkscape.org/namespaces/inkscape" xmlns:rdf="http://www.w3.org/1999/02/22-rdf-syntax-ns#" xmlns:sodipodi="http://sodipodi.sourceforge.net/DTD/sodipodi-0.dtd" xmlns:svg="http://www.w3.org/2000/svg"><defs id="defs2"/><g id="layer1"><path d="M 29.003906,0 C 27.359255,0 25.998047,1.3514421 25.998047,2.9960938 V 5 H 22.994141 C 20.241523,5 17.996095,7.2434777 17.996094,9.9960938 V 23.998047 h -1.992188 v -0.996094 c 0,-2.198634 -1.801365,-3.999999 -4,-4 H 10.001953 C 8.8766915,19.001954 8.0019531,18.125262 8.0019531,17 V 14.003906 C 8.0041146,13.451637 7.5581288,13.002154 7.0058594,13 6.4505364,12.997827 5.9997803,13.448584 6.0019531,14.003906 V 17 c 0,2.198634 1.8013658,4.001954 3.9999999,4.001953 h 2.001953 c 1.125262,0 2,0.874738 2,2 v 0.996094 h -2 c -1.644651,0 -3.0058591,1.361209 -3.0058591,3.005859 v 2 c 0,1.644653 1.3612081,2.994141 3.0058591,2.994141 v 2.302734 C 10.81135,34.543389 9.6697337,34.92759 8.5976562,35.435547 L 7.2207031,33.589844 8.0175781,32.994141 C 8.4606302,32.662393 8.5499271,32.035762 8.2167969,31.59375 7.8850496,31.150698 7.2564655,31.061401 6.8144531,31.394531 l -6.4003906,4.789063 c -0.44305172,0.331729 -0.53235085,0.960331 -0.19921875,1.402344 0.33124536,0.438091 0.95386975,0.527031 1.39453125,0.199218 l 0.8066406,-0.601562 1.3828125,1.849609 C 1.4373353,41.684598 3.7795276e-7,45.177609 0,49 -3.7795276e-7,57.272165 6.7278338,64 15,64 22.593567,64 28.884047,58.328893 29.865234,51 H 59.001953 C 61.754572,51 64,48.746759 64,45.994141 V 9.9960938 C 64,7.2434781 61.754572,5 59.001953,5 H 56.003906 V 2.9960938 C 56.003906,1.3514406 54.64465,0 53,0 51.355346,0 50.003906,1.3514428 50.003906,2.9960938 V 5 H 31.998047 V 2.9960938 C 31.998047,1.3514421 30.648558,0 29.003906,0 Z M 6.9980469,5.9492188 C 6.4457774,5.9513716 5.9997924,6.4008551 6.0019531,6.953125 v 3.048828 c 0.00214,0.549221 0.4468725,0.993952 0.9960938,0.996094 0.5522694,0.0022 1.001753,-0.443824 1.0039062,-0.996094 V 6.953125 C 8.0041267,6.3978024 7.5533698,5.9470451 6.9980469,5.9492188 Z M 22.994141,7 h 3.003906 v 2 c 0,1.644651 1.361208,3.005859 3.005859,3.005859 1.644652,0 2.994141,-1.361208 2.994141,-3.005859 V 7 h 18.005859 v 2 c 0,1.644651 1.35144,3.005859 2.996094,3.005859 1.64465,0 3.003906,-1.361206 3.003906,-3.005859 V 7 h 2.998047 c 1.679248,0 2.996094,1.3168483 2.996094,2.9960938 v 8.0000002 h -42 V 9.9960938 C 19.998047,8.3168491 21.314896,7 22.994141,7 Z M 12.951172,8 c -0.247525,0.00937 -0.482781,0.1103011 -0.660156,0.2832031 l -2,1.9414059 c -0.3921713,0.385733 -0.3991457,1.015829 -0.01563,1.410157 0.384108,0.39382 1.014229,0.403452 1.410156,0.02148 l 2,-1.9414062 C 14.079924,9.3312822 14.090394,8.7011471 13.708984,8.3046875 13.511269,8.0998987 13.23562,7.9890715 12.951172,8 Z M 0.99609375,8.0019531 C 0.7315306,8.0061106 0.47938323,8.1149855 0.29492188,8.3046875 -0.08648612,8.7011471 -0.07600409,9.331278 0.31835938,9.7148438 L 2.3105469,11.65625 c 0.3968674,0.387163 1.0330129,0.377494 1.4179687,-0.02148 0.3814082,-0.396491 0.3709256,-1.026591 -0.023437,-1.410157 l -2,-1.9414059 C 1.5151943,8.099469 1.2602895,7.9983558 0.99609375,8.0019531 Z M 19.998047,19.998047 h 42 V 45.994141 C 61.998047,47.673385 60.681201,49 59.001953,49 H 30 c 0,-1.028489 -0.102757,-2.035092 -0.300781,-3.005859 H 30 c 1.644651,0 2.994141,-1.35144 2.994141,-2.996094 V 38.996094 C 32.994141,37.351444 31.644653,36 30,36 h -4.001953 c -0.833862,0 -1.59513,0.342535 -2.142578,0.898438 -1.711717,-1.256045 -3.698045,-2.158374 -5.851563,-2.597657 v -2.302734 c 1.641191,-0.0042 2.998047,-1.352058 2.998047,-2.994141 v -2 c 0,-0.880145 -0.389816,-1.680217 -1.003906,-2.232422 z m 6,3.003906 c -1.644651,0 -2.996094,1.351443 -2.996094,2.996094 V 30 c 0,1.644652 1.351442,2.994141 2.996094,2.994141 H 30 c 1.644652,0 2.994141,-1.349489 2.994141,-2.994141 v -4.001953 c 0,-1.644651 -1.349489,-2.996094 -2.994141,-2.996094 z m 12.998047,0 C 37.351444,23.001953 36,24.353395 36,25.998047 V 30 c 0,1.644653 1.351444,2.994141 2.996094,2.994141 h 4.001953 c 1.64465,0 2.996094,-1.349488 2.996094,-2.994141 v -4.001953 c 0,-1.644653 -1.351444,-2.996094 -2.996094,-2.996094 z m 13,0 C 50.351444,23.001953 49,24.353396 49,25.998047 V 30 c 0,1.644651 1.351444,2.994141 2.996094,2.994141 h 4 c 1.644654,0 3.005859,-1.34949 3.005859,-2.994141 v -4.001953 c 0,-1.644651 -1.361205,-2.996094 -3.005859,-2.996094 z m -39.992188,2.996094 h 5.992188 c 0.571279,0 1.00586,0.434581 1.005859,1.005859 v 2 C 19.001953,29.575186 18.567373,30 17.996094,30 h -5.992188 c -0.571279,0 -1.005859,-0.424814 -1.005859,-0.996094 v -2 c 0,-0.571278 0.43458,-1.005859 1.005859,-1.005859 z M 15,36 c 7.191321,0 12.999999,5.808678 13,13 0,7.191326 -5.808678,12.998047 -13,12.998047 C 7.8086784,61.998047 2,56.191326 2,49 2.0000011,41.808678 7.8086796,36 15,36 Z m 23.958984,0 C 37.311194,36.041348 36,37.377141 36,38.996094 v 4.001953 c 0,1.644654 1.351444,2.996094 2.996094,2.996094 h 4.001953 c 1.64465,0 2.996094,-1.35144 2.996094,-2.996094 V 38.996094 C 45.994141,37.351444 44.642697,36 42.998047,36 Z m 12.998047,0 C 50.309233,36.041348 49,37.377145 49,38.996094 v 4.001953 c 0,1.64465 1.35144,2.996094 2.996094,2.996094 h 4 c 1.644654,0 3.005859,-1.351444 3.005859,-2.996094 V 38.996094 C 59.001953,37.351444 57.640748,36 55.996094,36 Z M 15,38 C 10.553928,38 6.5373753,40.683376 4.8359375,44.791016 3.1345002,48.898644 4.0749027,53.635444 7.21875,56.779297 10.362598,59.923142 15.099397,60.8655 19.207031,59.164062 23.314668,57.462621 26.154721,53.433367 25.998047,49 c 0.0032,-0.553009 -0.443081,-1.003656 -0.996094,-1.005859 H 15.996094 V 38.996094 C 15.993899,38.446891 15.549199,38.002196 15,38 Z" id="path864" style="opacity:1;fill:#000000;fill-opacity:1;stroke:none;stroke-width:2;stroke-linecap:round;stroke-linejoin:round;stroke-miterlimit:4;stroke-dasharray:none;stroke-dashoffset:0;stroke-opacity:1" transform="scale(0.26458334)"/></g></svg>